#!OML:ASF H:\charlestonDancing\Project 1\Capture day 1\Session 1\femaleDancer.ASF
:FULLY-SPECIFIED
:DEGREES
95
root 11.578 17.3231 0.19684 -98.0477 -99.0061 92.405
lowerback 9.02634 -3.43691 9.59304
upperback 1.01641 -3.61482 4.46025
thorax -4.2917 -1.9939 -0.220376
lowerneck 1.20556 -0.608848 1.29079
upperneck -1.48355 -0.94889 -6.3445
head -0.708127 -0.450107 -2.20245
rclavicle -3.23274e-014 3.57812e-014
rhumerus -60.5829 -52.8309 -26.7492
rradius 8.36656
rwrist 96.8978
rhand -11.3953 -38.0282
rfingers 7.12502
rthumb 14.6397 -67.4914
lclavicle -3.23274e-014 3.57812e-014
lhumerus -35.3464 -4.98471 94.177
lradius 48.0145
lwrist -13.7178
lhand -22.7922 9.01466
lfingers 7.12502
lthumb 3.64373 38.9633
rfemur -15.5598 -2.70275 31.7352
rtibia 34.5756
rfoot -12.6803 -4.78208
rtoes -14.7578
lfemur -0.348421 -4.84194 -14.5064
ltibia 65.9323
lfoot 27.8468 5.79713
ltoes 0.472517
96
root 11.2441 17.3532 0.154932 -99.2961 -99.5756 93.2225
lowerback 9.43554 -3.20116 10.1853
upperback 1.21975 -3.21262 4.44476
thorax -4.30524 -1.80446 -0.600783
lowerneck 0.810861 -0.515867 2.08582
upperneck -1.15618 -0.791646 -6.53853
head -0.537794 -0.383615 -2.41176
rclavicle -3.07744e-014 4.13472e-014
rhumerus -47.1986 -47.1559 -44.2187
rradius 8.69564
rwrist 84.9048
rhand -12.7337 -38.8464
rfingers 7.12502
rthumb 13.3499 -68.3987
lclavicle -3.07744e-014 4.13472e-014
lhumerus -36.5189 -4.07476 94.0896
lradius 44.8257
lwrist -13.4581
lhand -21.0865 9.33457
lfingers 7.12502
lthumb 5.29081 39.2485
rfemur -13.3354 -3.23768 32.4339
rtibia 33.5859
rfoot -13.2883 -5.08379
rtoes -15.9126
lfemur -3.2508 -5.02231 -13.599
ltibia 69.0143
lfoot 22.9445 1.77533
ltoes -5.98023
97
root 10.9209 17.3803 0.115973 -100.082 -99.9762 93.8103
lowerback 9.70131 -2.96813 10.6472
upperback 1.36309 -2.83635 4.34548
thorax -4.29422 -1.62377 -1.00326
lowerneck 0.87262 -0.326818 2.56977
upperneck -1.34275 -0.52701 -6.26375
head -0.59535 -0.247793 -2.41185
rclavicle -1.99033e-014 4.53229e-014
rhumerus -37.1403 -39.3274 -57.9539
rradius 9.4938
rwrist 73.4932
rhand -12.8687 -39.5015
rfingers 7.12502
rthumb 13.2197 -69.0623
lclavicle -1.99033e-014 4.53229e-014
lhumerus -37.4707 -2.51191 93.387
lradius 41.1997
lwrist -13.6414
lhand -19.4706 10.1615
lfingers 7.12502
lthumb 6.85088 40.0306
rfemur -11.4375 -3.69422 32.9365
rtibia 32.6153
rfoot -13.6669 -5.29977
rtoes -19.5299
lfemur -6.46231 -5.11825 -12.9377
ltibia 71.3714
lfoot 17.8062 -1.55854
ltoes -10.5776
98
root 10.6049 17.394 0.0768512 -100.118 -100.238 93.9144
lowerback 9.78225 -2.73984 10.9717
upperback 1.42383 -2.49553 4.2056
thorax -4.26062 -1.45754 -1.37618
lowerneck 1.25373 -0.290494 2.81049
upperneck -1.47948 -0.462245 -5.90979
head -0.700073 -0.208604 -2.34025
rclavicle -1.64494e-014 7.196e-014
rhumerus -30.042 -29.7821 -68.3917
rradius 10.9596
rwrist 61.9305
rhand -12.5127 -40.1501
rfingers 7.12502
rthumb 13.5629 -69.6883
lclavicle -1.64494e-014 7.196e-014
lhumerus -38.3801 -0.195615 92.0032
lradius 37.3108
lwrist -14.0343
lhand -18.6849 11.0728
lfingers 7.12502
lthumb 7.60926 40.916
rfemur -10.0011 -3.97397 33.2943
rtibia 31.8567
rfoot -14.4585 -5.27994
rtoes -19.8652
lfemur -9.93651 -4.97098 -12.4386
ltibia 73.0152
lfoot 13.3133 -3.34787
ltoes -13.6537
99
root 10.2822 17.4222 0.0382755 -98.9426 -100.165 92.9536
lowerback 9.6663 -2.42259 10.9796
upperback 1.45988 -2.09359 3.97723
thorax -4.12385 -1.25024 -1.68636
lowerneck 1.48442 -0.189942 2.96645
upperneck -1.57311 -0.311636 -5.53596
head -0.760808 -0.130631 -2.24773
rclavicle -3.38555e-014 -2.38542e-015
rhumerus -25.3634 -20.1464 -75.7559
rradius 12.909
rwrist 51.7227
rhand -12.6686 -40.4521
rfingers 7.12502
rthumb 13.4126 -70.0003
lclavicle -3.38555e-014 -2.38542e-015
lhumerus -39.4211 2.84054 89.8291
lradius 33.1765
lwrist -15.0796
lhand -19.2334 11.4097
lfingers 7.12502
lthumb 7.07987 41.2713
rfemur -8.77667 -4.14391 33.298
rtibia 31.2576
rfoot -16.0381 -5.04402
rtoes -15.4623
lfemur -13.322 -4.51019 -12.2972
ltibia 73.6994
lfoot 9.88876 -3.70118
ltoes -15.1071
100
root 9.95755 17.4481 0.00388706 -96.7372 -99.7242 91.103
lowerback 9.44672 -2.02966 10.706
upperback 1.44661 -1.62667 3.60473
thorax -3.968 -1.00407 -2.00244
lowerneck 1.54969 -0.203495 3.14126
upperneck -1.50068 -0.310462 -5.20015
head -0.748094 -0.131649 -2.16873
rclavicle 4.72114e-015 -1.94809e-014
rhumerus -22.2324 -13.2066 -80.1998
rradius 14.7875
rwrist 45.8207
rhand -13.546 -39.8566
rfingers 7.12502
rthumb 12.5668 -69.4587
lclavicle 4.72114e-015 -1.94809e-014
lhumerus -40.7328 6.65366 86.6199
lradius 29.1478
lwrist -16.9107
lhand -20.253 11.5778
lfingers 7.12502
lthumb 6.09559 41.4701
rfemur -7.72975 -4.31605 32.8766
rtibia 30.8258
rfoot -17.274 -4.56981
rtoes -13.5505
lfemur -16.6027 -3.83559 -12.612
ltibia 73.5057
lfoot 5.74777 -3.7199
ltoes -16.7787
101
root 9.63402 17.4656 -0.0290817 -94.009 -99.2938 88.8224
lowerback 9.23839 -1.66933 10.4646
upperback 1.40182 -1.19433 3.20943
thorax -3.85445 -0.777977 -2.34909
lowerneck 1.65353 -0.215432 3.08993
upperneck -1.49316 -0.311662 -4.70915
head -0.76044 -0.133352 -1.99877
rclavicle -2.02139e-014 4.37326e-015
rhumerus -19.637 -6.85444 -83.4697
rradius 16.8568
rwrist 40.925
rhand -14.2469 -39.6521
rfingers 7.12502
rthumb 11.891 -69.2944
lclavicle -2.02139e-014 4.37326e-015
lhumerus -42.2869 11.2338 82.2805
lradius 25.3253
lwrist -19.2245
lhand -21.4723 11.9028
lfingers 7.12502
lthumb 4.91834 41.8257
rfemur -6.72283 -4.45796 32.4476
rtibia 30.4022
rfoot -18.2131 -3.99537
rtoes -13.474
lfemur -19.7382 -3.08216 -12.9564
ltibia 72.459
lfoot 2.1535 -3.64924
ltoes -16.7669
102
root 9.30755 17.4783 -0.0624376 -91.2085 -99.1007 86.515
lowerback 8.9678 -1.31322 10.4439
upperback 1.32212 -0.751957 2.85201
thorax -3.7403 -0.551858 -2.77482
lowerneck 1.2978 0.105412 3.80699
upperneck -1.29647 0.126044 -5.0184
head -0.621884 0.0794543 -2.23238
rclavicle 6.89534e-016 -4.57205e-015
rhumerus -17.5066 -0.863435 -85.8559
rradius 19.2864
rwrist 36.1516
rhand -14.686 -39.7572
rfingers 7.12502
rthumb 11.4676 -69.4235
lclavicle 6.89534e-016 -4.57205e-015
lhumerus -44.3378 16.4255 76.5683
lradius 21.6187
lwrist -22.338
lhand -22.8841 12.7522
lfingers 7.12502
lthumb 3.55502 42.7023
rfemur -5.71019 -4.61208 32.2608
rtibia 29.9393
rfoot -19.0257 -3.49295
rtoes -13.6403
lfemur -22.6643 -2.29015 -13.064
ltibia 70.5227
lfoot -1.0962 -3.70815
ltoes -16.2575
103
root 8.97329 17.4959 -0.0912774 -87.9537 -98.8805 83.7372
lowerback 8.71771 -0.841971 10.5076
upperback 1.09944 -0.13296 2.36803
thorax -3.76045 -0.248322 -3.39595
lowerneck 1.89188 -0.0262089 4.23471
upperneck -1.37281 -0.0179866 -4.87386
head -0.756282 0.0128022 -2.26439
rclavicle 1.39149e-015 -3.22031e-014
rhumerus -15.9382 3.85611 -87.4293
rradius 21.9066
rwrist 32.0486
rhand -14.974 -39.6845
rfingers 7.12502
rthumb 11.1898 -69.3661
lclavicle 1.39149e-015 -3.22031e-014
lhumerus -47.5521 21.8157 68.9475
lradius 18.3507
lwrist -27.0625
lhand -24.0897 14.5792
lfingers 7.12502
lthumb 2.39069 44.5456
rfemur -4.56799 -5.10716 31.9188
rtibia 29.218
rfoot -19.797 -2.658
rtoes -13.6327
lfemur -25.1922 -1.47571 -13.2958
ltibia 67.6327
lfoot -3.86508 -3.88128
ltoes -18.4223
104
root 8.63137 17.5163 -0.113431 -84.3543 -98.6688 80.5
lowerback 8.64463 -0.473639 10.5877
upperback 0.989347 0.360266 1.91763
thorax -3.76583 -0.00578607 -3.97321
lowerneck 1.99312 -0.192258 4.30904
upperneck -1.23824 -0.22445 -4.63348
head -0.740567 -0.0912513 -2.19577
rclavicle -2.34581e-015 -2.1506e-014
rhumerus -14.284 8.03174 -88.4252
rradius 24.7016
rwrist 28.3925
rhand -15.0288 -40.014
rfingers 7.12502
rthumb 11.1369 -69.6984
lclavicle -2.34581e-015 -2.1506e-014
lhumerus -52.3349 28.2759 58.5281
lradius 15.5444
lwrist -34.5791
lhand -25.0832 16.6204
lfingers 7.12502
lthumb 1.43124 46.5953
rfemur -3.07662 -5.99562 31.3941
rtibia 28.0522
rfoot -20.5405 -1.36686
rtoes -13.5615
lfemur -27.1293 -0.751844 -13.6177
ltibia 63.806
lfoot -6.10381 -4.00034
ltoes -19.6816
105
root 8.28475 17.537 -0.133108 -80.8034 -98.7081 77.1986
lowerback 8.65808 -0.134482 10.8613
upperback 0.928284 0.837991 1.57546
thorax -3.75901 0.226014 -4.54199
lowerneck 2.23996 -0.289525 4.41935
upperneck -1.62218 -0.352306 -4.63661
head -0.911364 -0.152719 -2.21827
rclavicle -8.57569e-015 -2.3556e-014
rhumerus -12.6718 11.6354 -88.876
rradius 27.5767
rwrist 25.0989
rhand -15.1116 -40.2134
rfingers 7.12502
rthumb 11.0571 -69.9022
lclavicle -8.57569e-015 -2.3556e-014
lhumerus -59.8321 34.9294 44.3206
lradius 13.2644
lwrist -45.2146
lhand -26.0076 17.8798
lfingers 7.12502
lthumb 0.538383 47.8589
rfemur -1.1906 -6.63319 31.0822
rtibia 26.3878
rfoot -20.9652 -0.271699
rtoes -14.0104
lfemur -28.5645 -0.12721 -13.6969
ltibia 59.1519
lfoot -7.71476 -4.13158
ltoes -20.095
